<mxfile host="app.diagrams.net" modified="2024-07-17T14:07:01.671Z" agent="Mozilla/5.0 (Windows NT 10.0; Win64; x64) AppleWebKit/537.36 (KHTML, like Gecko) Chrome/126.0.0.0 Safari/537.36" etag="i41Ns1Ai59CKgmw_zG3Z" version="24.6.4" type="github">
  <diagram name="Page-1" id="7a6c530e-6e37-e111-ec74-82921da8cc10">
    <mxGraphModel dx="2074" dy="1145" grid="1" gridSize="10" guides="1" tooltips="1" connect="1" arrows="1" fold="1" page="1" pageScale="1.5" pageWidth="1169" pageHeight="826" background="#184380" math="0" shadow="0">
      <root>
        <mxCell id="0" style=";html=1;" />
        <mxCell id="1" style=";html=1;" parent="0" />
        <mxCell id="7RNzw-ZISMYlGjKPSKBX-16" value="&lt;blockquote style=&quot;margin: 0 0 0 40px; border: none; padding: 0px;&quot;&gt;&lt;b style=&quot;&quot;&gt;&lt;font color=&quot;#66b2ff&quot;&gt;数字孪生展板&lt;/font&gt;&lt;/b&gt;&lt;/blockquote&gt;" style="whiteSpace=wrap;html=1;rounded=1;shadow=0;strokeColor=none;strokeWidth=2;fillColor=#004578;fontSize=20;fontColor=#FFFFFF;align=center;arcSize=6;verticalAlign=top;spacingTop=4;labelPosition=center;verticalLabelPosition=middle;horizontal=1;" vertex="1" parent="1">
          <mxGeometry x="2360" y="201.25" width="790" height="407.5" as="geometry" />
        </mxCell>
        <mxCell id="7RNzw-ZISMYlGjKPSKBX-34" value="&lt;blockquote style=&quot;margin: 0 0 0 40px; border: none; padding: 0px;&quot;&gt;&lt;br&gt;&lt;/blockquote&gt;" style="whiteSpace=wrap;html=1;rounded=1;shadow=0;strokeColor=none;strokeWidth=2;fillColor=#66B2FF;fontSize=20;fontColor=#FFFFFF;align=center;arcSize=3;verticalAlign=top;spacingTop=4;labelPosition=center;verticalLabelPosition=middle;horizontal=1;fontStyle=0;fontFamily=Helvetica;spacing=2;spacingRight=0;" vertex="1" parent="1">
          <mxGeometry x="2585" y="261.25" width="100" height="265" as="geometry" />
        </mxCell>
        <mxCell id="7RNzw-ZISMYlGjKPSKBX-22" value="" style="edgeStyle=orthogonalEdgeStyle;rounded=0;orthogonalLoop=1;jettySize=auto;html=1;strokeWidth=3;dashed=1;endArrow=none;endFill=0;strokeColor=#00188f;fontColor=#00188f;" edge="1" parent="1" source="7RNzw-ZISMYlGjKPSKBX-18" target="7RNzw-ZISMYlGjKPSKBX-21">
          <mxGeometry relative="1" as="geometry">
            <Array as="points">
              <mxPoint x="2480" y="273.75" />
              <mxPoint x="2480" y="406.75" />
            </Array>
          </mxGeometry>
        </mxCell>
        <mxCell id="7RNzw-ZISMYlGjKPSKBX-18" value="&lt;font&gt;&lt;b&gt;数据中心&lt;/b&gt;&lt;/font&gt;" style="verticalLabelPosition=bottom;html=1;verticalAlign=top;align=center;strokeColor=none;fillColor=#00bcf2;shape=mxgraph.azure.database;fontColor=#00bcf2;" vertex="1" parent="1">
          <mxGeometry x="2400" y="248.75" width="37.5" height="50" as="geometry" />
        </mxCell>
        <mxCell id="7RNzw-ZISMYlGjKPSKBX-23" value="" style="verticalLabelPosition=bottom;html=1;verticalAlign=top;align=center;strokeColor=none;fillColor=#FFFFFF;shape=mxgraph.azure.computer;pointerEvents=1;" vertex="1" parent="1">
          <mxGeometry x="2610" y="311.25" width="50" height="45" as="geometry" />
        </mxCell>
        <mxCell id="23046e2b9bb16c14-116" value="&lt;blockquote style=&quot;margin: 0 0 0 40px; border: none; padding: 0px;&quot;&gt;&lt;font color=&quot;#663300&quot;&gt;&lt;b&gt;M&lt;span style=&quot;background-color: initial;&quot;&gt;E&lt;/span&gt;&lt;span style=&quot;background-color: initial;&quot;&gt;S&lt;/span&gt;&lt;span style=&quot;background-color: initial;&quot;&gt;系&lt;/span&gt;&lt;span style=&quot;background-color: initial;&quot;&gt;统&lt;/span&gt;&lt;/b&gt;&lt;/font&gt;&lt;/blockquote&gt;" style="whiteSpace=wrap;html=1;rounded=1;shadow=0;strokeColor=none;strokeWidth=2;fillColor=#99CCFF;fontSize=20;fontColor=#FFFFFF;align=center;arcSize=3;verticalAlign=top;spacingTop=4;labelPosition=center;verticalLabelPosition=middle;horizontal=1;" parent="1" vertex="1">
          <mxGeometry x="330" y="200" width="1960" height="1010" as="geometry" />
        </mxCell>
        <mxCell id="7RNzw-ZISMYlGjKPSKBX-10" value="生产管理系统" style="whiteSpace=wrap;html=1;rounded=1;shadow=0;strokeColor=none;strokeWidth=2;fillColor=#003366;fontSize=20;fontColor=#FFFFFF;align=center;arcSize=12;verticalAlign=top;spacingTop=4;gradientColor=none;" vertex="1" parent="1">
          <mxGeometry x="580" y="880" width="560" height="230" as="geometry" />
        </mxCell>
        <mxCell id="7RNzw-ZISMYlGjKPSKBX-5" value="工单管理系统" style="whiteSpace=wrap;html=1;rounded=1;shadow=0;strokeColor=none;strokeWidth=2;fillColor=#666600;fontSize=20;fontColor=#FFFFFF;align=center;arcSize=12;verticalAlign=top;spacingTop=4;gradientColor=none;" vertex="1" parent="1">
          <mxGeometry x="1260" y="620" width="800" height="340" as="geometry" />
        </mxCell>
        <mxCell id="7RNzw-ZISMYlGjKPSKBX-9" value="环境监管&lt;span style=&quot;background-color: initial;&quot;&gt;系统&lt;/span&gt;" style="whiteSpace=wrap;html=1;rounded=1;shadow=0;strokeColor=none;strokeWidth=2;fillColor=#006633;fontSize=20;fontColor=#FFFFFF;align=center;arcSize=12;verticalAlign=top;spacingTop=4;gradientColor=none;" vertex="1" parent="1">
          <mxGeometry x="1670" y="300" width="560" height="230" as="geometry" />
        </mxCell>
        <mxCell id="7RNzw-ZISMYlGjKPSKBX-8" value="设备监管&lt;span style=&quot;background-color: initial;&quot;&gt;系统&lt;/span&gt;" style="whiteSpace=wrap;html=1;rounded=1;shadow=0;strokeColor=none;strokeWidth=2;fillColor=#336600;fontSize=20;fontColor=#FFFFFF;align=center;arcSize=12;verticalAlign=top;spacingTop=4;gradientColor=none;" vertex="1" parent="1">
          <mxGeometry x="980" y="290" width="560" height="230" as="geometry" />
        </mxCell>
        <mxCell id="7RNzw-ZISMYlGjKPSKBX-7" value="人工监管&lt;span style=&quot;background-color: initial;&quot;&gt;系统&lt;/span&gt;" style="whiteSpace=wrap;html=1;rounded=1;shadow=0;strokeColor=none;strokeWidth=2;fillColor=#660000;fontSize=20;fontColor=#FFFFFF;align=center;arcSize=12;verticalAlign=top;spacingTop=4;gradientColor=none;" vertex="1" parent="1">
          <mxGeometry x="390" y="270" width="560" height="230" as="geometry" />
        </mxCell>
        <mxCell id="23046e2b9bb16c14-69" style="edgeStyle=orthogonalEdgeStyle;html=1;startArrow=none;startFill=0;startSize=10;endArrow=none;endFill=0;endSize=10;strokeWidth=3;fontSize=11;fontColor=#FFFFFF;strokeColor=#FFFFFF;dashed=1;rounded=0;" parent="1" target="23046e2b9bb16c14-63" edge="1">
          <mxGeometry relative="1" as="geometry">
            <mxPoint x="351.5" y="518" as="sourcePoint" />
          </mxGeometry>
        </mxCell>
        <mxCell id="23046e2b9bb16c14-113" value="智能产线数字孪生改造计划" style="text;strokeColor=none;fillColor=none;html=1;fontSize=24;fontStyle=1;verticalAlign=middle;align=center;rounded=0;shadow=0;fontColor=#FFFFFF;" parent="1" vertex="1">
          <mxGeometry x="120" y="40" width="1510" height="40" as="geometry" />
        </mxCell>
        <mxCell id="7RNzw-ZISMYlGjKPSKBX-14" value="工单管理系统" style="whiteSpace=wrap;html=1;rounded=1;shadow=0;strokeColor=none;strokeWidth=2;fillColor=#FFFF99;fontSize=20;fontColor=#663300;align=center;arcSize=12;verticalAlign=top;spacingTop=4;gradientColor=none;" vertex="1" parent="1">
          <mxGeometry x="1290" y="680" width="230" height="110" as="geometry" />
        </mxCell>
        <mxCell id="7RNzw-ZISMYlGjKPSKBX-42" value="&lt;blockquote style=&quot;margin: 0 0 0 40px; border: none; padding: 0px;&quot;&gt;&lt;br&gt;&lt;/blockquote&gt;" style="whiteSpace=wrap;html=1;rounded=1;shadow=0;strokeColor=none;strokeWidth=2;fillColor=#66B2FF;fontSize=20;fontColor=#FFFFFF;align=center;arcSize=3;verticalAlign=top;spacingTop=4;labelPosition=center;verticalLabelPosition=middle;horizontal=1;fontStyle=0;fontFamily=Helvetica;spacing=2;spacingRight=0;" vertex="1" parent="1">
          <mxGeometry x="3025" y="261.25" width="100" height="265" as="geometry" />
        </mxCell>
        <mxCell id="7RNzw-ZISMYlGjKPSKBX-24" value="" style="verticalLabelPosition=bottom;html=1;verticalAlign=top;align=center;strokeColor=none;fillColor=#FFFFFF;shape=mxgraph.azure.computer;pointerEvents=1;" vertex="1" parent="1">
          <mxGeometry x="3050" y="311.25" width="50" height="45" as="geometry" />
        </mxCell>
        <mxCell id="7RNzw-ZISMYlGjKPSKBX-40" value="&lt;blockquote style=&quot;margin: 0 0 0 40px; border: none; padding: 0px;&quot;&gt;&lt;br&gt;&lt;/blockquote&gt;" style="whiteSpace=wrap;html=1;rounded=1;shadow=0;strokeColor=none;strokeWidth=2;fillColor=#66B2FF;fontSize=20;fontColor=#FFFFFF;align=center;arcSize=3;verticalAlign=top;spacingTop=4;labelPosition=center;verticalLabelPosition=middle;horizontal=1;fontStyle=0;fontFamily=Helvetica;spacing=2;spacingRight=0;" vertex="1" parent="1">
          <mxGeometry x="2915" y="261.25" width="100" height="265" as="geometry" />
        </mxCell>
        <mxCell id="7RNzw-ZISMYlGjKPSKBX-38" value="&lt;blockquote style=&quot;margin: 0 0 0 40px; border: none; padding: 0px;&quot;&gt;&lt;br&gt;&lt;/blockquote&gt;" style="whiteSpace=wrap;html=1;rounded=1;shadow=0;strokeColor=none;strokeWidth=2;fillColor=#66B2FF;fontSize=20;fontColor=#FFFFFF;align=center;arcSize=3;verticalAlign=top;spacingTop=4;labelPosition=center;verticalLabelPosition=middle;horizontal=1;fontStyle=0;fontFamily=Helvetica;spacing=2;spacingRight=0;" vertex="1" parent="1">
          <mxGeometry x="2805" y="261.25" width="100" height="265" as="geometry" />
        </mxCell>
        <mxCell id="7RNzw-ZISMYlGjKPSKBX-36" value="&lt;blockquote style=&quot;margin: 0 0 0 40px; border: none; padding: 0px;&quot;&gt;&lt;br&gt;&lt;/blockquote&gt;" style="whiteSpace=wrap;html=1;rounded=1;shadow=0;strokeColor=none;strokeWidth=2;fillColor=#66B2FF;fontSize=20;fontColor=#FFFFFF;align=center;arcSize=3;verticalAlign=top;spacingTop=4;labelPosition=center;verticalLabelPosition=middle;horizontal=1;fontStyle=0;fontFamily=Helvetica;spacing=2;spacingRight=0;" vertex="1" parent="1">
          <mxGeometry x="2695" y="261.25" width="100" height="265" as="geometry" />
        </mxCell>
        <mxCell id="7RNzw-ZISMYlGjKPSKBX-35" value="&lt;b&gt;对外&lt;/b&gt;&lt;br&gt;&lt;div&gt;&lt;b&gt;展示设备&lt;/b&gt;&lt;/div&gt;" style="text;html=1;align=center;verticalAlign=middle;whiteSpace=wrap;rounded=0;fontColor=#FFFFFF;fontSize=14;fillColor=none;" vertex="1" parent="1">
          <mxGeometry x="2602.5" y="271.25" width="65" height="30" as="geometry" />
        </mxCell>
        <mxCell id="7RNzw-ZISMYlGjKPSKBX-37" value="&lt;b&gt;产线内&lt;/b&gt;&lt;div&gt;&lt;b style=&quot;background-color: initial;&quot;&gt;监控设备&lt;/b&gt;&lt;/div&gt;" style="text;html=1;align=center;verticalAlign=middle;whiteSpace=wrap;rounded=0;fontColor=#FFFFFF;fontSize=14;" vertex="1" parent="1">
          <mxGeometry x="2715" y="271.25" width="60" height="30" as="geometry" />
        </mxCell>
        <mxCell id="7RNzw-ZISMYlGjKPSKBX-39" value="&lt;font style=&quot;font-size: 14px;&quot;&gt;&lt;b style=&quot;font-size: 14px;&quot;&gt;产线外&lt;/b&gt;&lt;/font&gt;&lt;b style=&quot;background-color: initial;&quot;&gt;实时监控设备&lt;/b&gt;" style="text;html=1;align=center;verticalAlign=middle;whiteSpace=wrap;rounded=0;fontColor=#FFFFFF;fontSize=14;" vertex="1" parent="1">
          <mxGeometry x="2817.5" y="271.25" width="75" height="30" as="geometry" />
        </mxCell>
        <mxCell id="7RNzw-ZISMYlGjKPSKBX-41" value="&lt;font style=&quot;font-size: 14px;&quot;&gt;&lt;b style=&quot;font-size: 14px;&quot;&gt;订单管理设备&lt;/b&gt;&lt;/font&gt;" style="text;html=1;align=center;verticalAlign=middle;whiteSpace=wrap;rounded=0;fontColor=#FFFFFF;fontSize=14;" vertex="1" parent="1">
          <mxGeometry x="2935" y="271.25" width="60" height="30" as="geometry" />
        </mxCell>
        <mxCell id="7RNzw-ZISMYlGjKPSKBX-43" value="&lt;b&gt;维护管理设备&lt;/b&gt;" style="text;html=1;align=center;verticalAlign=middle;whiteSpace=wrap;rounded=0;fontColor=#FFFFFF;fontSize=14;" vertex="1" parent="1">
          <mxGeometry x="3045" y="271.25" width="60" height="30" as="geometry" />
        </mxCell>
        <mxCell id="7RNzw-ZISMYlGjKPSKBX-44" value="" style="edgeStyle=orthogonalEdgeStyle;rounded=0;orthogonalLoop=1;jettySize=auto;html=1;strokeWidth=3;endArrow=none;endFill=0;strokeColor=#00188F;entryX=0.5;entryY=1;entryDx=0;entryDy=0;entryPerimeter=0;exitX=1;exitY=0.5;exitDx=0;exitDy=0;dashed=1;dashPattern=1 2;" edge="1" parent="1" source="7RNzw-ZISMYlGjKPSKBX-21" target="7RNzw-ZISMYlGjKPSKBX-24">
          <mxGeometry relative="1" as="geometry">
            <mxPoint x="3230" y="406.25" as="targetPoint" />
          </mxGeometry>
        </mxCell>
        <mxCell id="7RNzw-ZISMYlGjKPSKBX-47" value="" style="edgeStyle=orthogonalEdgeStyle;rounded=0;orthogonalLoop=1;jettySize=auto;html=1;strokeWidth=3;endArrow=none;endFill=0;strokeColor=#00188F;entryX=0.5;entryY=1;entryDx=0;entryDy=0;entryPerimeter=0;exitX=1;exitY=0.5;exitDx=0;exitDy=0;dashed=1;dashPattern=1 2;" edge="1" parent="1" source="7RNzw-ZISMYlGjKPSKBX-21" target="7RNzw-ZISMYlGjKPSKBX-66">
          <mxGeometry relative="1" as="geometry">
            <mxPoint x="2580" y="416.25" as="sourcePoint" />
            <mxPoint x="2965" y="356.25" as="targetPoint" />
          </mxGeometry>
        </mxCell>
        <mxCell id="7RNzw-ZISMYlGjKPSKBX-48" value="" style="edgeStyle=orthogonalEdgeStyle;rounded=0;orthogonalLoop=1;jettySize=auto;html=1;strokeWidth=3;endArrow=none;endFill=0;strokeColor=#00188F;entryX=0.5;entryY=0;entryDx=0;entryDy=0;entryPerimeter=0;exitX=1;exitY=0.5;exitDx=0;exitDy=0;dashed=1;dashPattern=1 2;" edge="1" parent="1" source="7RNzw-ZISMYlGjKPSKBX-21" target="7RNzw-ZISMYlGjKPSKBX-67">
          <mxGeometry relative="1" as="geometry">
            <mxPoint x="2580" y="416.25" as="sourcePoint" />
            <mxPoint x="2965" y="471.25" as="targetPoint" />
          </mxGeometry>
        </mxCell>
        <mxCell id="7RNzw-ZISMYlGjKPSKBX-49" value="" style="edgeStyle=orthogonalEdgeStyle;rounded=0;orthogonalLoop=1;jettySize=auto;html=1;strokeWidth=3;endArrow=none;endFill=0;strokeColor=#00188F;entryX=0.5;entryY=1;entryDx=0;entryDy=0;entryPerimeter=0;exitX=1;exitY=0.5;exitDx=0;exitDy=0;dashed=1;dashPattern=1 2;" edge="1" parent="1" source="7RNzw-ZISMYlGjKPSKBX-21" target="7RNzw-ZISMYlGjKPSKBX-62">
          <mxGeometry relative="1" as="geometry">
            <mxPoint x="2580" y="416.25" as="sourcePoint" />
            <mxPoint x="2855" y="356.25" as="targetPoint" />
          </mxGeometry>
        </mxCell>
        <mxCell id="7RNzw-ZISMYlGjKPSKBX-50" value="" style="edgeStyle=orthogonalEdgeStyle;rounded=0;orthogonalLoop=1;jettySize=auto;html=1;strokeWidth=3;endArrow=none;endFill=0;strokeColor=#00188F;entryX=0.5;entryY=0;entryDx=0;entryDy=0;entryPerimeter=0;exitX=1;exitY=0.5;exitDx=0;exitDy=0;dashed=1;dashPattern=1 2;" edge="1" parent="1" source="7RNzw-ZISMYlGjKPSKBX-21" target="7RNzw-ZISMYlGjKPSKBX-63">
          <mxGeometry relative="1" as="geometry">
            <mxPoint x="2580" y="416.25" as="sourcePoint" />
            <mxPoint x="2855" y="471.25" as="targetPoint" />
          </mxGeometry>
        </mxCell>
        <mxCell id="7RNzw-ZISMYlGjKPSKBX-51" value="" style="edgeStyle=orthogonalEdgeStyle;rounded=0;orthogonalLoop=1;jettySize=auto;html=1;strokeWidth=3;endArrow=none;endFill=0;strokeColor=#00188F;exitX=1;exitY=0.5;exitDx=0;exitDy=0;dashed=1;dashPattern=1 2;" edge="1" parent="1" source="7RNzw-ZISMYlGjKPSKBX-21">
          <mxGeometry relative="1" as="geometry">
            <mxPoint x="2580" y="416.25" as="sourcePoint" />
            <mxPoint x="2745" y="358.75" as="targetPoint" />
          </mxGeometry>
        </mxCell>
        <mxCell id="7RNzw-ZISMYlGjKPSKBX-52" value="" style="edgeStyle=orthogonalEdgeStyle;rounded=0;orthogonalLoop=1;jettySize=auto;html=1;strokeWidth=3;endArrow=none;endFill=0;strokeColor=#00188F;entryX=0.51;entryY=0.132;entryDx=0;entryDy=0;entryPerimeter=0;exitX=1;exitY=0.5;exitDx=0;exitDy=0;dashed=1;dashPattern=1 2;" edge="1" parent="1" source="7RNzw-ZISMYlGjKPSKBX-21" target="7RNzw-ZISMYlGjKPSKBX-61">
          <mxGeometry relative="1" as="geometry">
            <mxPoint x="2580" y="416.25" as="sourcePoint" />
            <mxPoint x="2745" y="461.25" as="targetPoint" />
          </mxGeometry>
        </mxCell>
        <mxCell id="7RNzw-ZISMYlGjKPSKBX-53" value="" style="edgeStyle=orthogonalEdgeStyle;rounded=0;orthogonalLoop=1;jettySize=auto;html=1;strokeWidth=3;endArrow=none;endFill=0;strokeColor=#00188F;entryX=0.5;entryY=1;entryDx=0;entryDy=0;entryPerimeter=0;dashed=1;dashPattern=1 2;exitX=1;exitY=0.5;exitDx=0;exitDy=0;" edge="1" parent="1" source="7RNzw-ZISMYlGjKPSKBX-21" target="7RNzw-ZISMYlGjKPSKBX-23">
          <mxGeometry relative="1" as="geometry">
            <mxPoint x="2620" y="638.75" as="sourcePoint" />
            <mxPoint x="2755" y="481.25" as="targetPoint" />
          </mxGeometry>
        </mxCell>
        <mxCell id="7RNzw-ZISMYlGjKPSKBX-54" value="" style="edgeStyle=orthogonalEdgeStyle;rounded=0;orthogonalLoop=1;jettySize=auto;html=1;strokeWidth=3;endArrow=none;endFill=0;strokeColor=#00188F;entryX=0.5;entryY=0;entryDx=0;entryDy=0;entryPerimeter=0;dashed=1;dashPattern=1 2;exitX=1;exitY=0.5;exitDx=0;exitDy=0;" edge="1" parent="1" source="7RNzw-ZISMYlGjKPSKBX-21" target="7RNzw-ZISMYlGjKPSKBX-58">
          <mxGeometry relative="1" as="geometry">
            <mxPoint x="2560" y="648.75" as="sourcePoint" />
            <mxPoint x="2635" y="471.25" as="targetPoint" />
          </mxGeometry>
        </mxCell>
        <mxCell id="7RNzw-ZISMYlGjKPSKBX-21" value="" style="triangle;whiteSpace=wrap;html=1;verticalAlign=middle;fillColor=#00BCF2;strokeColor=none;" vertex="1" parent="1">
          <mxGeometry x="2500" y="362.5" width="70" height="87.5" as="geometry" />
        </mxCell>
        <mxCell id="7RNzw-ZISMYlGjKPSKBX-58" value="" style="verticalLabelPosition=bottom;html=1;verticalAlign=top;align=center;strokeColor=none;fillColor=#FFFFFF;shape=mxgraph.azure.laptop;pointerEvents=1;" vertex="1" parent="1">
          <mxGeometry x="2610" y="478.75" width="50" height="30" as="geometry" />
        </mxCell>
        <mxCell id="7RNzw-ZISMYlGjKPSKBX-61" value="" style="verticalLabelPosition=bottom;html=1;verticalAlign=top;align=center;strokeColor=none;fillColor=#FFFFFF;shape=mxgraph.azure.tablet;pointerEvents=1;" vertex="1" parent="1">
          <mxGeometry x="2720" y="475" width="50" height="37.5" as="geometry" />
        </mxCell>
        <mxCell id="7RNzw-ZISMYlGjKPSKBX-62" value="" style="verticalLabelPosition=bottom;html=1;verticalAlign=top;align=center;strokeColor=none;fillColor=#FFFFFF;shape=mxgraph.azure.laptop;pointerEvents=1;" vertex="1" parent="1">
          <mxGeometry x="2825.5" y="313.75" width="60" height="40" as="geometry" />
        </mxCell>
        <mxCell id="7RNzw-ZISMYlGjKPSKBX-63" value="" style="verticalLabelPosition=bottom;html=1;verticalAlign=top;align=center;strokeColor=none;fillColor=#FFFFFF;shape=mxgraph.azure.mobile;pointerEvents=1;" vertex="1" parent="1">
          <mxGeometry x="2838" y="468.75" width="35" height="50" as="geometry" />
        </mxCell>
        <mxCell id="7RNzw-ZISMYlGjKPSKBX-64" value="" style="verticalLabelPosition=bottom;html=1;verticalAlign=top;align=center;strokeColor=none;fillColor=#FFFFFF;shape=mxgraph.azure.computer;pointerEvents=1;" vertex="1" parent="1">
          <mxGeometry x="2720" y="311.25" width="50" height="45" as="geometry" />
        </mxCell>
        <mxCell id="7RNzw-ZISMYlGjKPSKBX-66" value="" style="verticalLabelPosition=bottom;html=1;verticalAlign=top;align=center;strokeColor=none;fillColor=#FFFFFF;shape=mxgraph.azure.laptop;pointerEvents=1;" vertex="1" parent="1">
          <mxGeometry x="2935" y="313.75" width="60" height="40" as="geometry" />
        </mxCell>
        <mxCell id="7RNzw-ZISMYlGjKPSKBX-67" value="" style="verticalLabelPosition=bottom;html=1;verticalAlign=top;align=center;strokeColor=none;fillColor=#FFFFFF;shape=mxgraph.azure.laptop;pointerEvents=1;" vertex="1" parent="1">
          <mxGeometry x="2935" y="473.75" width="60" height="40" as="geometry" />
        </mxCell>
        <mxCell id="7RNzw-ZISMYlGjKPSKBX-68" value="&lt;font color=&quot;#004578&quot;&gt;数据&lt;/font&gt;&lt;div&gt;&lt;font color=&quot;#004578&quot;&gt;中台&lt;/font&gt;&lt;/div&gt;&lt;div&gt;&lt;font color=&quot;#004578&quot;&gt;管理&lt;/font&gt;&lt;/div&gt;" style="text;html=1;align=center;verticalAlign=middle;whiteSpace=wrap;rounded=0;fontStyle=1" vertex="1" parent="1">
          <mxGeometry x="2490" y="391.25" width="60" height="30" as="geometry" />
        </mxCell>
        <mxCell id="7RNzw-ZISMYlGjKPSKBX-69" value="" style="sketch=0;points=[[0,0,0],[0.25,0,0],[0.5,0,0],[0.75,0,0],[1,0,0],[0,1,0],[0.25,1,0],[0.5,1,0],[0.75,1,0],[1,1,0],[0,0.25,0],[0,0.5,0],[0,0.75,0],[1,0.25,0],[1,0.5,0],[1,0.75,0]];outlineConnect=0;fontColor=#232F3E;gradientColor=none;gradientDirection=north;fillColor=#66B2FF;strokeColor=#ffffff;dashed=0;verticalLabelPosition=bottom;verticalAlign=top;align=center;html=1;fontSize=12;fontStyle=0;aspect=fixed;shape=mxgraph.aws4.resourceIcon;resIcon=mxgraph.aws4.ar_vr;" vertex="1" parent="1">
          <mxGeometry x="3036" y="448.25" width="78" height="78" as="geometry" />
        </mxCell>
        <mxCell id="7RNzw-ZISMYlGjKPSKBX-45" value="" style="edgeStyle=orthogonalEdgeStyle;rounded=0;orthogonalLoop=1;jettySize=auto;html=1;strokeWidth=3;endArrow=none;endFill=0;strokeColor=#00188F;entryX=0.5;entryY=0;entryDx=0;entryDy=0;entryPerimeter=0;exitX=1;exitY=0.5;exitDx=0;exitDy=0;dashed=1;dashPattern=1 2;" edge="1" parent="1" source="7RNzw-ZISMYlGjKPSKBX-21">
          <mxGeometry relative="1" as="geometry">
            <mxPoint x="2580" y="416.25" as="sourcePoint" />
            <mxPoint x="3075" y="471.25" as="targetPoint" />
          </mxGeometry>
        </mxCell>
        <mxCell id="7RNzw-ZISMYlGjKPSKBX-70" value="&lt;font color=&quot;#66b2ff&quot; style=&quot;font-size: 22px;&quot;&gt;&lt;b&gt;可通过数据中台配置在各种设备上展示的数据信息&lt;/b&gt;&lt;/font&gt;" style="text;html=1;align=center;verticalAlign=middle;whiteSpace=wrap;rounded=0;" vertex="1" parent="1">
          <mxGeometry x="2486.25" y="558.75" width="537.5" height="30" as="geometry" />
        </mxCell>
      </root>
    </mxGraphModel>
  </diagram>
</mxfile>
